<svg width="200" height="200" viewBox="0 0 200 200" fill="none" xmlns="http://www.w3.org/2000/svg">
<g clip-path="url(#clip0_292_253)">
<path d="M46.4538 37.8076C52.7999 37.8076 58.1307 32.4769 58.1307 26.1307C58.1307 19.7846 52.7999 14.4538 46.4538 14.4538C40.1076 14.4538 34.7769 19.7846 34.7769 26.1307C34.7769 32.4769 40.1076 37.8076 46.4538 37.8076ZM40.1076 120.308C40.1076 122.084 41.6307 123.608 43.4076 123.608C45.1846 123.608 46.7076 122.084 46.7076 120.308C46.7076 118.531 45.1846 117.008 43.4076 117.008C41.6307 117.008 40.1076 118.531 40.1076 120.308ZM63.4615 52.5307C66.2538 52.5307 68.2845 50.2461 68.2845 47.7076C68.2845 44.9153 65.9999 42.8846 63.4615 42.8846C60.6692 42.8846 58.6384 45.1692 58.6384 47.7076C58.6384 50.2461 60.6692 52.5307 63.4615 52.5307ZM25.1307 96.446C31.4769 96.446 36.8076 91.1153 36.8076 84.7691C36.8076 78.423 31.4769 73.0922 25.1307 73.0922C18.7846 73.0922 13.4538 78.423 13.4538 84.7691C13.7077 91.1153 18.7846 96.446 25.1307 96.446ZM8.37691 69.0307C11.1692 69.0307 13.2 66.7461 13.2 64.2076C13.2 61.4153 10.9154 59.3845 8.37691 59.3845C5.58461 59.3845 3.55384 61.6692 3.55384 64.2076C3.55384 66.9999 5.58461 69.0307 8.37691 69.0307ZM6.59999 79.6922C6.59999 77.9153 5.07692 76.3922 3.3 76.3922C1.52308 76.3922 0 77.9153 0 79.6922C0 81.4691 1.52308 82.9922 3.3 82.9922C5.07692 82.9922 6.59999 81.4691 6.59999 79.6922ZM22.0846 52.2769C26.6538 52.2769 30.2077 48.723 30.2077 44.1538C30.2077 39.5846 26.6538 36.0307 22.0846 36.0307C17.5154 36.0307 13.9615 39.5846 13.9615 44.1538C13.9615 48.723 17.5154 52.2769 22.0846 52.2769ZM120.831 7.59999C122.608 7.59999 124.131 6.07692 124.131 4.3C124.131 2.52308 122.608 1 120.831 1C119.054 1 117.531 2.52308 117.531 4.3C117.531 6.07692 119.054 7.59999 120.831 7.59999ZM31.9846 119.038C31.9846 111.169 25.6384 104.823 17.7692 104.823C9.89999 104.823 3.55384 111.169 3.55384 119.038C3.55384 126.908 9.89999 133.254 17.7692 133.254C25.6384 133.254 31.9846 126.908 31.9846 119.038ZM174.392 59.1307C180.738 59.1307 186.069 53.7999 186.069 47.4538C186.069 41.1076 180.738 35.7769 174.392 35.7769C168.046 35.7769 162.715 41.1076 162.715 47.4538C162.715 53.7999 167.792 59.1307 174.392 59.1307ZM148.246 139.346C148.246 143.915 151.8 147.469 156.369 147.469C160.938 147.469 164.492 143.915 164.492 139.346C164.492 134.777 160.938 131.223 156.369 131.223C151.8 131.223 148.246 134.777 148.246 139.346ZM156.369 31.2077C160.938 31.2077 164.492 27.6538 164.492 23.0846C164.492 18.5154 160.938 14.9615 156.369 14.9615C151.8 14.9615 148.246 18.5154 148.246 23.0846C148.246 27.6538 151.8 31.2077 156.369 31.2077ZM138.346 52.2769C142.915 52.2769 146.469 48.723 146.469 44.1538C146.469 39.5846 142.915 36.0307 138.346 36.0307C133.777 36.0307 130.223 39.5846 130.223 44.1538C130.223 48.723 133.777 52.2769 138.346 52.2769ZM167.538 80.9614C167.538 88.8307 173.884 95.1768 181.754 95.1768C189.623 95.1768 195.969 88.8307 195.969 80.9614C195.969 73.0922 189.623 66.7461 181.754 66.7461C173.884 66.7461 167.538 73.0922 167.538 80.9614ZM159.415 79.6922C159.415 77.9153 157.892 76.3922 156.115 76.3922C154.338 76.3922 152.815 77.9153 152.815 79.6922C152.815 81.4691 154.338 82.9922 156.115 82.9922C157.892 82.9922 159.415 81.4691 159.415 79.6922ZM136.061 13.9461C138.854 13.9461 140.884 11.6615 140.884 9.12307C140.884 6.58461 138.6 4.3 136.061 4.3C133.269 4.3 131.238 6.58461 131.238 9.12307C131.238 11.6615 133.523 13.9461 136.061 13.9461ZM151.292 69.0307C154.084 69.0307 156.115 66.7461 156.115 64.2076C156.115 61.4153 153.831 59.3845 151.292 59.3845C148.754 59.3845 146.469 61.6692 146.469 64.2076C146.469 66.9999 148.754 69.0307 151.292 69.0307ZM51.2769 60.6538C51.2769 56.0845 47.723 52.5307 43.1538 52.5307C38.5846 52.5307 35.0307 56.0845 35.0307 60.6538C35.0307 65.223 38.5846 68.7768 43.1538 68.7768C47.723 68.7768 51.2769 65.223 51.2769 60.6538ZM136.061 147.469C133.269 147.469 131.238 149.754 131.238 152.292C131.238 155.084 133.523 157.115 136.061 157.115C138.854 157.115 140.884 154.831 140.884 152.292C140.884 149.754 138.854 147.469 136.061 147.469ZM119.561 167.015C111.692 167.015 105.346 173.361 105.346 181.231C105.346 189.1 111.692 195.446 119.561 195.446C127.431 195.446 133.777 189.1 133.777 181.231C133.777 173.361 127.431 167.015 119.561 167.015ZM153.069 162.192C146.723 162.192 141.392 167.523 141.392 173.869C141.392 180.215 146.723 185.546 153.069 185.546C159.415 185.546 164.746 180.215 164.746 173.869C164.746 167.523 159.415 162.192 153.069 162.192ZM117.531 157.115C117.531 158.892 119.054 160.415 120.831 160.415C122.608 160.415 124.131 158.892 124.131 157.115C124.131 155.338 122.608 153.815 120.831 153.815C119.054 154.069 117.531 155.338 117.531 157.115ZM196.223 117.008C194.446 117.008 192.923 118.531 192.923 120.308C192.923 122.084 194.446 123.608 196.223 123.608C198 123.608 199.523 122.084 199.523 120.308C199.523 118.531 197.746 117.008 196.223 117.008ZM191.146 130.969C188.354 130.969 186.323 133.254 186.323 135.792C186.323 138.584 188.607 140.615 191.146 140.615C193.938 140.615 195.969 138.331 195.969 135.792C195.969 133 193.938 130.969 191.146 130.969ZM114.231 37.8076C120.577 37.8076 125.908 32.4769 125.908 26.1307C125.908 19.7846 120.577 14.4538 114.231 14.4538C107.884 14.4538 102.554 19.7846 102.554 26.1307C102.554 32.4769 107.884 37.8076 114.231 37.8076ZM174.392 103.554C168.046 103.554 162.715 108.884 162.715 115.231C162.715 121.577 168.046 126.908 174.392 126.908C180.738 126.908 186.069 121.577 186.069 115.231C185.815 108.884 180.738 103.554 174.392 103.554ZM25.1307 140.869C18.7846 140.869 13.4538 146.2 13.4538 152.546C13.4538 158.892 18.7846 164.223 25.1307 164.223C31.4769 164.223 36.8076 158.892 36.8076 152.546C36.8076 146.2 31.7307 140.869 25.1307 140.869ZM177.438 147.723C172.869 147.723 169.315 151.277 169.315 155.846C169.315 160.415 172.869 163.969 177.438 163.969C182.007 163.969 185.561 160.415 185.561 155.846C185.561 151.277 182.007 147.723 177.438 147.723ZM48.2307 130.969C45.4384 130.969 43.4076 133.254 43.4076 135.792C43.4076 138.584 45.6923 140.615 48.2307 140.615C50.7692 140.615 53.0538 138.331 53.0538 135.792C53.0538 133 50.7692 130.969 48.2307 130.969ZM61.1768 147.723C56.6076 147.723 53.0538 151.277 53.0538 155.846C53.0538 160.415 56.6076 163.969 61.1768 163.969C65.7461 163.969 69.2999 160.415 69.2999 155.846C69.2999 151.277 65.7461 147.723 61.1768 147.723ZM63.4615 186.054C60.6692 186.054 58.6384 188.338 58.6384 190.877C58.6384 193.415 60.923 195.7 63.4615 195.7C66.2538 195.7 68.2845 193.415 68.2845 190.877C68.2845 188.338 65.9999 186.054 63.4615 186.054ZM43.1538 168.792C38.5846 168.792 35.0307 172.346 35.0307 176.915C35.0307 181.484 38.5846 185.038 43.1538 185.038C47.723 185.038 51.2769 181.484 51.2769 176.915C51.2769 172.346 47.723 168.792 43.1538 168.792ZM75.6461 42.8846C75.6461 44.6615 77.1691 46.1846 78.9461 46.1846C80.723 46.1846 82.246 44.6615 82.246 42.8846C82.246 41.1076 80.723 39.5846 78.9461 39.5846C76.9153 39.5846 75.6461 41.1076 75.6461 42.8846ZM94.1768 18.5154C94.1768 10.6461 87.8307 4.3 79.9614 4.3C72.0922 4.3 65.7461 10.6461 65.7461 18.5154C65.7461 26.3846 72.0922 32.7307 79.9614 32.7307C87.8307 32.9846 94.1768 26.6384 94.1768 18.5154ZM78.6922 192.4C76.9153 192.4 75.3922 193.923 75.3922 195.7C75.3922 197.477 76.9153 199 78.6922 199C80.4691 199 81.9922 197.477 81.9922 195.7C81.9922 193.923 80.4691 192.4 78.6922 192.4ZM85.2922 162.192C78.9461 162.192 73.6153 167.523 73.6153 173.869C73.6153 180.215 78.9461 185.546 85.2922 185.546C91.6383 185.546 96.9691 180.215 96.9691 173.869C96.9691 167.523 91.6383 162.192 85.2922 162.192Z" fill="#4F46E5"/>
</g>
<defs>
<clipPath id="clip0_292_253">
<rect width="200" height="200" fill="white"/>
</clipPath>
</defs>
</svg>
