<svg id="logosandtypes_com" xmlns="http://www.w3.org/2000/svg" viewBox="0 0 150 150.2"><style>.st1{fill:#f3622a}.st2{fill:#fabc34}.st3{fill:#c60751}</style><g id="Layer_3_1_"><path id="Layer_3" d="M0 .2h150v150H0V.2z" fill="none"/></g><g id="shannon_airport"><path id="path14729_1_" class="st1" d="M88 54.4c-17-6.4-23.5-11.6-25.9-16-5 .8-6.7 5.5-5.4 9.3.5 1.4.7 2.9 1.3 4.2 2.9 4.2 9.7 9 25.2 14.8 7.2 2.7 26.5 9.2 28.3 17.9 5.2 1.8 5.1-4.8 5.2-7.5-1.9-10.3-14.2-17.2-28.7-22.7"/><path id="path14733_1_" class="st2" d="M70.2 33.8c5.2-1.9 13.2-3.4 19.5-4.5 16.7-3 24.3-5.4 29.9-10.9 3.3-3.4 5.3-8 5.4-12.8 0-.9-.1-1.7-.2-2.6-.1 2.3-1.4 4.9-4.9 7.2-5.4 3.6-12.5 5.3-29.9 8.6-8.9 1.7-17.1 3.8-22.5 6.8C59.6 30 55.7 36 55.7 42.9c0 2.8 0 5.7 2.3 9-.6-1.3-.9-2.8-1-4.2.1-6.3 5.9-11.1 13.2-13.9"/><path id="path14737_1_" class="st1" d="M82.5 73.2c-17-6.4-23.5-11.6-25.9-16-5 0-5.5 5.7-5.5 9.3 0 1.5.8 2.9 1.4 4.2 2.9 4.2 9.7 9 25.2 14.8 7.2 2.7 26.5 9.2 28.3 17.9 5.2 2.1 5.1-4.8 5.2-7.5-1.9-10.3-14.2-17.2-28.7-22.7"/><path id="path14741_1_" class="st3" d="M106 103.5c-1.8 1.1-3.7 2.1-5.7 2.9-6.4 2.7-15.9 5.4-29.8 8.6-25.4 5.9-45.4 12-45.6 28.2 6.9-7.1 14.7-9.9 43.1-16.6 15.3-3.7 28-8.6 33.6-12.5 6.5-4.5 9.7-10.3 9.7-15.3 0-.9-.1-1.9-.3-2.8.1 2.7-1.4 5.2-5 7.5"/><path id="path14745_1_" class="st2" d="M64.8 52.6c5.2-1.9 13.2-3.4 19.5-4.5 16.7-3 24.3-5.4 29.9-10.9 3.3-3.4 5.3-8 5.4-12.8 0-.9-.1-1.7-.2-2.6-.1 2.3-1.4 4.9-4.9 7.2-5.5 3.6-12.5 5.3-29.9 8.6-8.9 1.7-17.1 3.8-22.5 6.8-7.9 4.4-11.8 10.5-11.8 17.3 0 2.8 0 5.7 2.3 9-.6-1.3-.9-2.8-1-4.2 0-6.3 5.9-11.2 13.2-13.9"/><path id="path14749_1_" class="st3" d="M111.5 84.7c-1.8 1.1-3.7 2.1-5.7 2.9-6.4 2.7-15.9 5.4-29.8 8.6-25.4 5.9-45.4 12-45.6 28.2 6.9-7.1 14.7-9.9 43.1-16.6 15.3-3.7 28-8.6 33.6-12.5 6.5-4.5 9.7-10.3 9.7-15.3 0-.9-.1-1.9-.3-2.8.1 2.8-1.4 5.2-5 7.5"/></g></svg>